<svg xmlns="http://www.w3.org/2000/svg" width="25" height="16" viewBox="0 0 25 16">
  <path fill="#F08100" fill-rule="evenodd" d="M566.884,103 L562.176,91.296 L564.728,91.296 L568.292,100.14 L571.856,91.296 L574.408,91.296 L569.7,103 L566.884,103 Z M580.524,96.114 C581.565339,95.0579947 582.305998,94.2293363 582.746,93.628 C583.186002,93.0266637 583.406,92.4180031 583.406,91.802 C583.406,91.1859969 583.171336,90.6616688 582.702,90.229 C582.232664,89.7963312 581.63867,89.58 580.92,89.58 C579.65866,89.58 578.610004,90.2253269 577.774,91.516 L575.684,90.306 C576.35867,89.2939949 577.102996,88.5313359 577.917,88.018 C578.731004,87.5046641 579.77966,87.248 581.063,87.248 C582.34634,87.248 583.471995,87.6549959 584.44,88.469 C585.408005,89.2830041 585.892,90.393993 585.892,91.802 C585.892,92.594004 585.686669,93.3493297 585.276,94.068 C584.865331,94.7866703 584.110005,95.710661 583.01,96.84 L579.402,100.514 L586.376,100.514 L586.376,103 L575.86,103 L575.86,100.8 L580.524,96.114 Z" transform="translate(-562 -87)"/>
</svg>
